<svg xmlns="http://www.w3.org/2000/svg" version="1.1" xmlns:xlink="http://www.w3.org/1999/xlink" xmlns:svgjs="http://svgjs.dev/svgjs" width="2000" height="1247" viewBox="0 0 2000 1247"><g transform="matrix(1,0,0,1,-1.2121212121212466,0.504858299595071)"><svg viewBox="0 0 396 247" data-background-color="#ffffff" preserveAspectRatio="xMidYMid meet" height="1247" width="2000" xmlns="http://www.w3.org/2000/svg" xmlns:xlink="http://www.w3.org/1999/xlink"><g id="tight-bounds" transform="matrix(1,0,0,1,0.2400000000000091,-0.09999999999999432)"><svg viewBox="0 0 395.52 247.2" height="247.2" width="395.52"><g><svg></svg></g><g><svg viewBox="0 0 395.52 247.2" height="247.2" width="395.52"><g transform="matrix(1,0,0,1,110.12304815864023,47.215199999999996)"><svg viewBox="0 0 175.27390368271952 152.7696" height="152.7696" width="175.27390368271952"><g><svg viewBox="0 0 175.27390368271952 152.7696" height="152.7696" width="175.27390368271952"><g><svg viewBox="0 0 175.27390368271952 152.7696" height="152.7696" width="175.27390368271952"><g><svg viewBox="0 0 175.27390368271952 152.7696" height="152.7696" width="175.27390368271952"><g id="textblocktransform"><svg viewBox="0 0 175.27390368271952 152.7696" height="152.7696" width="175.27390368271952" id="textblock"><g><svg viewBox="0 0 175.27390368271952 152.7696" height="152.7696" width="175.27390368271952"><g transform="matrix(1,0,0,1,0,0)"><svg width="175.27390368271952" viewBox="1.2999999523162842 -34.5 40.5 35.29999923706055" height="152.7696" data-palette-color="#ca3433"><path d="M41.8-34.1L37.45-33.7 37.45-0.8 41.8-0.4 41.8 0 29.5 0 29.5-0.4 33.6-0.8 33.6-31.25 33.4-31.25 21.35 0.8 20.85 0.8 7.4-31.3 7.2-31.3 7.2-3.05Q7.2-1.85 7.5-1.38 7.8-0.9 8.7-0.8L8.7-0.8 12.25-0.4 12.25 0 1.3 0 1.3-0.4 4.9-0.8Q5.8-0.9 6.1-1.38 6.4-1.85 6.4-3.05L6.4-3.05 6.4-33.05Q6.05-33.65 5.53-33.88 5-34.1 4-34.1L4-34.1 1.7-34.1 1.7-34.5 10.25-34.5 22.55-5.15 22.75-5.15 33.75-34.5 41.8-34.5 41.8-34.1Z" opacity="1" transform="matrix(1,0,0,1,0,0)" fill="#ca3433" class="undefined-text-0" data-fill-palette-color="primary" id="text-0"></path></svg></g></svg></g></svg></g></svg></g></svg></g></svg></g></svg></g><path d="M103.096 41.215L103.096 0 350.296 0 350.296 247.2 103.096 247.2 103.096 205.985 116.873 205.985 116.873 233.423 336.519 233.423 336.519 13.777 116.873 13.777 116.873 41.215Z" fill="#ca3433" stroke="transparent" data-fill-palette-color="primary"></path></svg></g><defs></defs></svg><rect width="395.52" height="247.2" fill="none" stroke="none" visibility="hidden"></rect></g></svg></g></svg>