<svg xmlns="http://www.w3.org/2000/svg" version="1.1" xmlns:xlink="http://www.w3.org/1999/xlink" xmlns:svgjs="http://svgjs.dev/svgjs" width="2000" height="1247" viewBox="0 0 2000 1247"><g transform="matrix(1,0,0,1,-1.2121212121212466,0.504858299595071)"><svg viewBox="0 0 396 247" data-background-color="#ffffff" preserveAspectRatio="xMidYMid meet" height="1247" width="2000" xmlns="http://www.w3.org/2000/svg" xmlns:xlink="http://www.w3.org/1999/xlink"><g id="tight-bounds" transform="matrix(1,0,0,1,0.2400000000000091,-0.09999999999999432)"><svg viewBox="0 0 395.52 247.2" height="247.2" width="395.52"><g><svg></svg></g><g><svg viewBox="0 0 395.52 247.2" height="247.2" width="395.52"><g transform="matrix(1,0,0,1,104.14554586466164,47.215199999999996)"><svg viewBox="0 0 187.2289082706767 152.7696" height="152.7696" width="187.2289082706767"><g><svg viewBox="0 0 187.2289082706767 152.7696" height="152.7696" width="187.2289082706767"><g><svg viewBox="0 0 187.2289082706767 152.7696" height="152.7696" width="187.2289082706767"><g><svg viewBox="0 0 187.2289082706767 152.7696" height="152.7696" width="187.2289082706767"><g id="textblocktransform"><svg viewBox="0 0 187.2289082706767 152.7696" height="152.7696" width="187.2289082706767" id="textblock"><g><svg viewBox="0 0 187.2289082706767 152.7696" height="152.7696" width="187.2289082706767"><g transform="matrix(1,0,0,1,0,0)"><svg width="187.2289082706767" viewBox="3 -33 40.75 33.25" height="152.7696" data-palette-color="#7c0c8d"><path d="M13.2 0L3 0 3-1.25 6.95-2.1 8-30.7 3.7-31.75 3.7-33 11.45-33 23.6-4.55 36-33 43.6-33 43.6-31.75 39.4-30.75 40.25-2.1 43.75-1.25 43.75 0 33.45 0 33.45-1.25 37.15-2.05 36.6-29.65 23.5 0.25 22.45 0.25 9.75-29.85 9.15-2.05 13.2-1.25 13.2 0Z" opacity="1" transform="matrix(1,0,0,1,0,0)" fill="#7c0c8d" class="undefined-text-0" data-fill-palette-color="primary" id="text-0"></path></svg></g></svg></g></svg></g></svg></g></svg></g></svg></g></svg></g><path d="M109.073 41.215L109.073 0 356.273 0 356.273 247.2 109.073 247.2 109.073 205.985 122.85 205.985 122.85 233.423 342.496 233.423 342.496 13.777 122.85 13.777 122.85 41.215Z" fill="#7c0c8d" stroke="transparent" data-fill-palette-color="primary"></path></svg></g><defs></defs></svg><rect width="395.52" height="247.2" fill="none" stroke="none" visibility="hidden"></rect></g></svg></g></svg>